{
  "title": "Tigerr Benson completely abused and humiliated (pissing, BDSM)",
  "uid": 10792027,
  "size": 288226089,
  "categoryP": "porn",
  "categoryS": "movie_clips",
  "magnet": "?xt=urn:btih:51ddab07df90bba4c36ed441a0616b3d86ae13c7&amp;dn=Tigerr+Benson+completely+abused+and+humiliated+%28pissing%2C+BDSM%29&amp;tr=udp%3A%2F%2Ftracker.openbittorrent.com%3A80&amp;tr=udp%3A%2F%2Fopen.demonii.com%3A1337&amp;tr=udp%3A%2F%2Ftracker.coppersurfer.tk%3A6969&amp;tr=udp%3A%2F%2Fexodus.desync.com%3A6969",
  "seeders": 40,
  "leechers": 7,
  "uploader": "ThousandPeers",
  "files": 20,
  "time": 1408258987,
  "description": "Format                                   : AVI\nFormat/Info                              : Audio Video Interleave\nFile size                                : 243 MiB\nDuration                                 : 30mn 43s\nOverall bit rate                         : 1 107 Kbps\nWriting library                          : Boilsoft Joiner build 2411/release\n\n\n\nVideo\n\nID                                       : 0\nFormat                                   : MPEG-4 Visual\nFormat profile                           : Simple@L3\nFormat settings, BVOP                    : No\nFormat settings, QPel                    : No\nFormat settings, GMC                     : No warppoints\nFormat settings, Matrix                  : Default (H.263)\nCodec ID                                 : XVID\nCodec ID/Hint                            : XviD\nDuration                                 : 30mn 43s\nBit rate                                 : 841 Kbps\nWidth                                    : 720 pixels\nHeight                                   : 576 pixels\nDisplay aspect ratio                     : 5:4\nFrame rate                               : 25.000 fps\nStandard                                 : PAL\nColor space                              : YUV\nChroma subsampling                       : 4:2:0\nBit depth                                : 8 bits\nScan type                                : Progressive\nCompression mode                         : Lossy\nBits/(Pixel*Frame)                       : 0.081\nStream size                              : 185 MiB (76%)\nWriting library                          : ZJMedia MPEG Encoder\n\n\n\nAudio\n\nID                                       : 1\nFormat                                   : AC-3\nFormat/Info                              : Audio Coding 3\nMode extension                           : CM (complete main)\nFormat settings, Endianness              : Big\nCodec ID                                 : 2000\nDuration                                 : 30mn 43s\nBit rate mode                            : Constant\nBit rate                                 : 256 Kbps\nChannel(s)                               : 2 channels\nChannel positions                        : Front: L R\nSampling rate                            : 48.0 KHz\nBit depth                                : 16 bits\nCompression mode                         : Lossy\nStream size                              : 56.3 MiB (23%)\nAlignment                                : Split accross interleaves\nInterleave, duration                     : 40 ms (1.00 video frame)\nInterleave, preload duration             : 500 ms\n",
  "parsed": {
    "xt": "urn:btih:51ddab07df90bba4c36ed441a0616b3d86ae13c7",
    "dn": "Tigerr Benson completely abused and humiliated (pissing, BDSM)",
    "tr": [
      "udp://exodus.desync.com:6969",
      "udp://open.demonii.com:1337",
      "udp://tracker.coppersurfer.tk:6969",
      "udp://tracker.openbittorrent.com:80"
    ],
    "infoHash": "51ddab07df90bba4c36ed441a0616b3d86ae13c7",
    "infoHashBuffer": {
      "type": "Buffer",
      "data": [
        81,
        221,
        171,
        7,
        223,
        144,
        187,
        164,
        195,
        110,
        212,
        65,
        160,
        97,
        107,
        61,
        134,
        174,
        19,
        199
      ]
    },
    "name": "Tigerr Benson completely abused and humiliated (pissing, BDSM)",
    "announce": [
      "udp://exodus.desync.com:6969",
      "udp://open.demonii.com:1337",
      "udp://tracker.coppersurfer.tk:6969",
      "udp://tracker.openbittorrent.com:80"
    ],
    "urlList": []
  },
  "previous": 40,
  "peers": 26,
  "last_updated": "2016-12-27T00:14:36.210Z"
}